<svg width="21" height="21" viewBox="0 0 21 21" fill="none" xmlns="http://www.w3.org/2000/svg">
<path d="M17.4046 4.97606L13.0294 17.0359C12.7531 17.7979 11.9571 18.1894 11.2523 17.9096C11.0778 17.8391 10.9194 17.7324 10.7872 17.5964C10.6551 17.4603 10.5519 17.2978 10.4843 17.1191L9.09741 13.5417C8.83678 12.855 8.32013 12.3016 7.66056 12.0027L4.32238 10.517C3.62785 10.2072 3.31182 9.3485 3.61536 8.59851C3.68715 8.41742 3.79343 8.25265 3.92803 8.11375C4.06264 7.97484 4.22291 7.86456 4.39956 7.78927L15.6562 3.10184C16.3669 2.80559 17.1555 3.17759 17.4164 3.93358C17.5318 4.26807 17.5266 4.63857 17.4046 4.97606Z" fill="white" fill-opacity="0.35"/>
</svg>
